<svg width="64" height="74" viewBox="0 0 64 74" fill="none" xmlns="http://www.w3.org/2000/svg">
<g clip-path="url(#clip0)">
<path d="M44.192 36.7928C42.5937 38.2615 40.6954 39.4215 38.6078 40.2051C36.5201 40.9887 34.2848 41.3803 32.032 41.3571C29.7792 41.3803 27.5439 40.9887 25.4562 40.2051C23.3686 39.4215 21.4703 38.2615 19.872 36.7928L16.992 39.1608C18.9521 40.9972 21.2899 42.4519 23.8674 43.4391C26.445 44.4264 29.2102 44.9262 32 44.9091C34.801 44.932 37.5782 44.4333 40.1665 43.4427C42.7547 42.4521 45.101 40.9899 47.0656 39.143L44.192 36.7928Z" fill="black"/>
<path d="M17.2864 31.3938L14.5664 28.8778L21.856 22.1408L29.1328 28.8778L26.4192 31.3938L21.856 27.1669L17.2864 31.3938Z" fill="black"/>
<path d="M46.7136 31.3938L42.1504 27.1669L37.5808 31.3938L34.8672 28.8778L42.1504 22.1408L49.4336 28.8778L46.7136 31.3938Z" fill="black"/>
<path d="M57.8944 19.3643C59.5359 22.9173 60.3024 26.7636 60.1382 30.6245C59.9741 34.4854 58.8834 38.2641 56.9452 41.6869C55.007 45.1097 52.2699 48.0907 48.9322 50.414C45.5945 52.7373 41.7399 54.3446 37.6476 55.1195C33.5553 55.8945 29.3279 55.8175 25.2717 54.8943C21.2155 53.9711 17.4322 52.2248 14.1959 49.7819C10.9596 47.3389 8.35133 44.2606 6.56019 40.77C4.76905 37.2794 3.83987 33.4639 3.84 29.6C3.8353 26.0811 4.6062 22.5983 6.1056 19.3643C4.90414 18.9579 3.73443 18.4752 2.6048 17.9198C0.727352 21.9566 -0.154845 26.3294 0.0222409 30.7208C0.199327 35.1122 1.43125 39.412 3.6286 43.3081C5.82594 47.2043 8.93357 50.599 12.7259 53.2459C16.5182 55.8927 20.9001 57.7253 25.5535 58.6106C30.2068 59.4958 35.0149 59.4116 39.6287 58.364C44.2425 57.3164 48.5462 55.3316 52.2275 52.5539C55.9087 49.7761 58.8752 46.275 60.9115 42.3047C62.9477 38.3344 64.0028 33.9945 64 29.6C64.0048 25.5828 63.1183 21.6074 61.3952 17.9198C60.2656 18.4752 59.0958 18.9579 57.8944 19.3643V19.3643Z" fill="black"/>
<path d="M4.352 14.723C5.49042 15.2845 6.67617 15.7596 7.8976 16.1438C14.1504 18.1744 23.2576 19.1394 32 19.1394C40.7424 19.1394 49.8496 18.1744 56.1024 16.1438C57.3238 15.7596 58.5096 15.2845 59.648 14.723C62.368 13.3437 64 11.6328 64 9.57264C64 2.99552 47.4112 0 32 0C16.5888 0 0 2.99552 0 9.57264C0 11.6328 1.632 13.3437 4.352 14.723ZM60.16 9.57264C60.16 10.1646 59.2704 10.9757 57.5232 11.7749C55.4138 9.18963 52.8605 6.94179 49.9648 5.1208C56.6464 6.45872 60.16 8.35904 60.16 9.57264ZM48.416 8.45376C49.2369 9.00389 50.0233 9.59685 50.7712 10.2298C51.8446 11.1176 52.8437 12.0794 53.76 13.1069C49.0048 14.4685 41.6576 15.5874 32 15.5874C22.3424 15.5874 14.976 14.4685 10.24 13.1069C11.1612 12.0685 12.1668 11.0968 13.248 10.2002C13.9959 9.56725 14.7823 8.97429 15.6032 8.42416C20.3836 5.23732 26.1267 3.52245 32.0192 3.52245C37.9117 3.52245 43.6548 5.23732 48.4352 8.42416L48.416 8.45376ZM14.0352 5.1208C11.1395 6.94179 8.58615 9.18963 6.4768 11.7749C4.7296 10.9757 3.84 10.1883 3.84 9.57264C3.84 8.35904 7.3536 6.45872 14.0352 5.1208Z" fill="black"/>
</g>
<defs>
<clipPath id="clip0">
<rect width="64" height="74" fill="white"/>
</clipPath>
</defs>
</svg>
