<svg width="64" height="74" viewBox="0 0 64 74" fill="none" xmlns="http://www.w3.org/2000/svg">
<g clip-path="url(#clip0)">
<path d="M23.8656 28.9429H19.9744V32.5422H23.8656V28.9429Z" fill="black"/>
<path d="M44.0256 28.9429H40.1344V32.5422H44.0256V28.9429Z" fill="black"/>
<path d="M44.192 38.6754C42.5867 40.1421 40.6821 41.2988 38.589 42.0784C36.4959 42.8579 34.2562 43.2446 32 43.216C29.7476 43.2366 27.5131 42.8438 25.4258 42.0603C23.3386 41.2768 21.44 40.1183 19.84 38.6517L16.9664 41.0197C18.9288 42.8597 21.2706 44.3166 23.853 45.304C26.4354 46.2914 29.2058 46.7893 32 46.768C34.7991 46.794 37.5753 46.299 40.1635 45.3125C42.7516 44.326 45.0989 42.8682 47.0656 41.0256L44.192 38.6754Z" fill="black"/>
<path d="M63.9992 3.49872L63.852 0L60.8824 2.16672C58.255 4.04756 55.3553 5.57801 52.268 6.71328C46.5542 2.37292 39.3896 0.000441847 31.996 0.000441847C24.6024 0.000441847 17.4378 2.37292 11.724 6.71328C8.63805 5.57928 5.74023 4.04872 3.116 2.16672L0.140004 0L-0.000795514 3.49872C-0.000795514 3.87168 -0.199196 10.3304 3.724 15.7472C1.13859 20.2578 -0.14163 25.3103 0.00772262 30.4137C0.157076 35.5172 1.73092 40.4982 4.57636 44.8728C7.4218 49.2474 11.4421 52.8669 16.2467 55.3796C21.0512 57.8923 26.4767 59.2128 31.996 59.2128C37.5153 59.2128 42.9408 57.8923 47.7454 55.3796C52.5499 52.8669 56.5702 49.2474 59.4156 44.8728C62.2611 40.4982 63.8349 35.5172 63.9843 30.4137C64.1336 25.3103 62.8534 20.2578 60.268 15.7472C64.1912 10.3363 63.9992 3.87168 63.9992 3.49872ZM55.3272 9.35952C56.8694 8.7228 58.3658 7.99512 59.8072 7.18096C59.4754 8.97195 58.8585 10.7076 57.9768 12.3314C57.3539 13.4648 56.561 14.5111 55.6216 15.4394C54.5709 16.4677 53.3315 17.3155 51.9608 17.9435C51.3326 18.2194 50.6338 18.3283 49.9426 18.258C49.2513 18.1877 48.5948 17.941 48.0464 17.5455C47.4979 17.15 47.0792 16.6212 46.8369 16.0182C46.5946 15.4153 46.5384 14.7619 46.6744 14.131C46.8034 13.5083 47.1143 12.9302 47.5736 12.4595C48.0328 11.9888 48.6227 11.6435 49.2792 11.4611C50.0152 11.2539 50.7384 11.029 51.4488 10.7981C52.7992 10.36 54.0856 9.8864 55.3208 9.35952H55.3272ZM8.67761 9.35952C9.9311 9.89573 11.2127 10.3739 12.5176 10.7922C13.2216 11.0349 13.9448 11.2539 14.6808 11.4611C15.3417 11.6404 15.9366 11.9842 16.4005 12.4551C16.8644 12.926 17.1795 13.5057 17.3112 14.131C17.4447 14.7614 17.3868 15.4137 17.1437 16.0154C16.9007 16.6172 16.4821 17.1448 15.9344 17.5398C15.3868 17.9348 14.7315 18.1816 14.0413 18.2529C13.3512 18.3241 12.6531 18.2171 12.0248 17.9435C10.6495 17.3174 9.40897 16.4649 8.36401 15.4275C7.42653 14.4992 6.63576 13.4528 6.0152 12.3195C5.14227 10.6986 4.52583 8.97007 4.1848 7.18688C5.63026 7.99622 7.1286 8.72183 8.67121 9.35952H8.67761ZM31.9992 55.648C27.2724 55.648 22.6216 54.5473 18.4755 52.4475C14.3295 50.3477 10.8216 47.3163 8.27511 43.6327C5.72865 39.9491 4.22559 35.7318 3.90446 31.3696C3.58334 27.0074 4.45448 22.6406 6.43761 18.6717C7.60576 19.6557 8.91783 20.4827 10.3352 21.1285C11.3596 21.5981 12.4879 21.8413 13.6312 21.8389C15.4078 21.8357 17.1278 21.2601 18.4952 20.2109C19.5628 19.4125 20.3724 18.3578 20.8352 17.1622C21.298 15.9666 21.3963 14.6763 21.1192 13.4325C20.8563 12.2197 20.2531 11.0922 19.3701 10.1632C18.4871 9.23424 17.3555 8.53649 16.0888 8.14C20.7755 5.15237 26.333 3.55255 32.0248 3.55255C37.7166 3.55255 43.2741 5.15237 47.9608 8.14C46.6856 8.53111 45.5444 9.22629 44.6522 10.1555C43.7601 11.0846 43.1485 12.215 42.8792 13.4325C42.6058 14.6763 42.7058 15.9655 43.1683 17.1605C43.6309 18.3554 44.4384 19.4104 45.5032 20.2109C46.8706 21.2601 48.5906 21.8357 50.3672 21.8389C51.5085 21.8419 52.6349 21.5986 53.6568 21.1285C55.0742 20.4827 56.3863 19.6557 57.5544 18.6717C59.5373 22.6401 60.4085 27.0064 60.0877 31.3681C59.7668 35.7299 58.2643 39.9468 55.7186 43.6302C53.1729 47.3137 49.6659 50.3452 45.5207 52.4454C41.3755 54.5456 36.7255 55.647 31.9992 55.648V55.648Z" fill="black"/>
</g>
<defs>
<clipPath id="clip0">
<rect width="64" height="74" fill="white"/>
</clipPath>
</defs>
</svg>
